<svg width="32" height="33" viewBox="0 0 32 33" fill="none" xmlns="http://www.w3.org/2000/svg">
    <path d="M16.0001 2.125C15.3735 2.125 14.7739 2.44985 14.403 2.985L7.52761 13.462C6.49396 15.0371 5.91314 16.8805 5.85509 18.7671L5.38281 23.5C2.24895 24.2258 0 25.7561 0 27.5C0 29.7091 3.58172 31.5 8 31.5H24C28.4183 31.5 32 29.7091 32 27.5C32 25.7561 29.7511 24.2258 26.6172 23.5L26.1449 18.7671C26.0869 16.8805 25.5061 15.0371 24.4724 13.462L17.597 2.985C17.2261 2.44985 16.6265 2.125 16.0001 2.125Z" fill="url(#paint0_linear_riddle_gold)"/>
    <path d="M6.06836 18.0684C6.72502 20.4085 8.5249 22.3562 10.8705 23.4735L16 25.9167L21.1295 23.4735C23.4751 22.3562 25.275 20.4085 25.9316 18.0684L26.3261 22.0197C25.1261 23.8938 21.2373 25.3333 16 25.3333C10.7627 25.3333 6.87392 23.8938 5.67383 22.0197L6.06836 18.0684Z" fill="url(#paint3_linear_riddle_gold)"/>
    <path d="M26.808 23.0176C30.0246 23.6668 32 25.1089 32 26.7083C32 28.9175 28.4183 30.7083 24 30.7083H8C3.58172 30.7083 0 28.9175 0 26.7083C0 25.1089 1.97537 23.6668 5.19196 23.0176C6.98555 24.559 11.2398 25.5417 16 25.5417C20.7602 25.5417 25.0144 24.559 26.808 23.0176Z" fill="url(#paint0_linear_riddle_gold)"/>
    <path d="M16.0001 0C14.5882 0 13.2688 0.813457 12.7013 2.11805C11.7417 4.32421 13.5451 6.57936 15.487 7.90969C16.9261 8.89553 18.0436 10.2998 18.6808 11.9333C19.4042 13.788 19.0972 15.9299 18.0064 17.5976L16.3286 20.1631C15.8793 20.8501 16.0858 21.7734 16.788 22.2106L17.4602 22.629C18.1417 23.0533 19.0385 22.8941 19.5238 22.2594L20.6734 20.7557C22.4996 18.3672 23.0907 15.2491 22.0935 12.4925C20.9481 9.32657 18.4561 6.84382 15.5524 5.16361C14.8876 4.77894 14.5424 4.00258 14.8178 3.28397C15.0577 2.65819 15.4766 2.125 16.0001 2.125C17.1047 2.125 18 1.17386 18 0C18 0 17.1047 0 16.0001 0Z" fill="url(#paint1_linear_riddle_gold)"/>
    <defs>
        <linearGradient id="paint0_linear_riddle_gold" x1="16" y1="0" x2="16" y2="33" gradientUnits="userSpaceOnUse"><stop stop-color="#374151"/><stop offset="1" stop-color="#111827"/></linearGradient>
        <linearGradient id="paint1_linear_riddle_gold" x1="12" y1="0" x2="24" y2="24" gradientUnits="userSpaceOnUse"><stop stop-color="#FBBF24"/><stop offset="0.6" stop-color="#D97706"/><stop offset="1" stop-color="#92400E"/></linearGradient>
        <linearGradient id="paint3_linear_riddle_gold" x1="6" y1="20" x2="26" y2="20" gradientUnits="userSpaceOnUse"><stop stop-color="#B45309"/><stop offset="1" stop-color="#78350F"/></linearGradient>
    </defs>
</svg>